<mxfile host="app.diagrams.net" agent="Mozilla/5.0 (Windows NT 10.0; Win64; x64) AppleWebKit/537.36 (KHTML, like Gecko) Chrome/128.0.0.0 Safari/537.36 Edg/128.0.0.0" version="24.7.7">
  <diagram name="PÃ¡gina-1" id="ifetp-JLDhbnAZ_XeKwU">
    <mxGraphModel dx="880" dy="482" grid="1" gridSize="10" guides="1" tooltips="1" connect="1" arrows="1" fold="1" page="1" pageScale="1" pageWidth="827" pageHeight="1169" math="0" shadow="0">
      <root>
        <mxCell id="0" />
        <mxCell id="1" parent="0" />
        <mxCell id="oPD4JYWq9D96wYotxP25-3" style="edgeStyle=orthogonalEdgeStyle;rounded=0;orthogonalLoop=1;jettySize=auto;html=1;entryX=0.5;entryY=0;entryDx=0;entryDy=0;" edge="1" parent="1" source="oPD4JYWq9D96wYotxP25-1" target="oPD4JYWq9D96wYotxP25-2">
          <mxGeometry relative="1" as="geometry" />
        </mxCell>
        <mxCell id="oPD4JYWq9D96wYotxP25-1" value="inicio" style="ellipse;whiteSpace=wrap;html=1;" vertex="1" parent="1">
          <mxGeometry x="370" y="80" width="120" height="80" as="geometry" />
        </mxCell>
        <mxCell id="oPD4JYWq9D96wYotxP25-5" style="edgeStyle=orthogonalEdgeStyle;rounded=0;orthogonalLoop=1;jettySize=auto;html=1;exitX=0.5;exitY=1;exitDx=0;exitDy=0;entryX=0.5;entryY=0;entryDx=0;entryDy=0;" edge="1" parent="1" source="oPD4JYWq9D96wYotxP25-2" target="oPD4JYWq9D96wYotxP25-4">
          <mxGeometry relative="1" as="geometry" />
        </mxCell>
        <mxCell id="oPD4JYWq9D96wYotxP25-2" value="numero = 0&lt;div&gt;dobro&lt;/div&gt;" style="shape=hexagon;perimeter=hexagonPerimeter2;whiteSpace=wrap;html=1;fixedSize=1;" vertex="1" parent="1">
          <mxGeometry x="370" y="190" width="120" height="80" as="geometry" />
        </mxCell>
        <mxCell id="oPD4JYWq9D96wYotxP25-7" style="edgeStyle=orthogonalEdgeStyle;rounded=0;orthogonalLoop=1;jettySize=auto;html=1;entryX=0.5;entryY=0;entryDx=0;entryDy=0;" edge="1" parent="1" source="oPD4JYWq9D96wYotxP25-4" target="oPD4JYWq9D96wYotxP25-6">
          <mxGeometry relative="1" as="geometry" />
        </mxCell>
        <mxCell id="oPD4JYWq9D96wYotxP25-4" value="ler numero" style="shape=parallelogram;perimeter=parallelogramPerimeter;whiteSpace=wrap;html=1;fixedSize=1;" vertex="1" parent="1">
          <mxGeometry x="370" y="290" width="120" height="60" as="geometry" />
        </mxCell>
        <mxCell id="oPD4JYWq9D96wYotxP25-6" value="dobro = numero * 2" style="rounded=0;whiteSpace=wrap;html=1;" vertex="1" parent="1">
          <mxGeometry x="370" y="380" width="120" height="60" as="geometry" />
        </mxCell>
        <mxCell id="oPD4JYWq9D96wYotxP25-12" style="edgeStyle=orthogonalEdgeStyle;rounded=0;orthogonalLoop=1;jettySize=auto;html=1;exitX=0.5;exitY=1;exitDx=0;exitDy=0;exitPerimeter=0;entryX=0.5;entryY=0;entryDx=0;entryDy=0;" edge="1" parent="1" source="oPD4JYWq9D96wYotxP25-9" target="oPD4JYWq9D96wYotxP25-11">
          <mxGeometry relative="1" as="geometry" />
        </mxCell>
        <mxCell id="oPD4JYWq9D96wYotxP25-9" value="dobro" style="strokeWidth=2;html=1;shape=mxgraph.flowchart.display;whiteSpace=wrap;" vertex="1" parent="1">
          <mxGeometry x="380" y="470" width="100" height="60" as="geometry" />
        </mxCell>
        <mxCell id="oPD4JYWq9D96wYotxP25-10" style="edgeStyle=orthogonalEdgeStyle;rounded=0;orthogonalLoop=1;jettySize=auto;html=1;exitX=0.5;exitY=1;exitDx=0;exitDy=0;entryX=0.5;entryY=0;entryDx=0;entryDy=0;entryPerimeter=0;" edge="1" parent="1" source="oPD4JYWq9D96wYotxP25-6" target="oPD4JYWq9D96wYotxP25-9">
          <mxGeometry relative="1" as="geometry" />
        </mxCell>
        <mxCell id="oPD4JYWq9D96wYotxP25-11" value="fim" style="ellipse;whiteSpace=wrap;html=1;" vertex="1" parent="1">
          <mxGeometry x="370" y="560" width="120" height="80" as="geometry" />
        </mxCell>
      </root>
    </mxGraphModel>
  </diagram>
</mxfile>
